<?xml version="1.0" standalone="no"?>
<!DOCTYPE svg PUBLIC "-//W3C//DTD SVG 20010904//EN"
 "http://www.w3.org/TR/2001/REC-SVG-20010904/DTD/svg10.dtd">
<svg version="1.0" xmlns="http://www.w3.org/2000/svg"
 width="210.000000pt" height="210.000000pt" viewBox="0 0 210.000000 210.000000"
 preserveAspectRatio="xMidYMid meet">
<metadata>
Created by potrace 1.11, written by Peter Selinger 2001-2013
</metadata>
<g transform="translate(0.000000,210.000000) scale(0.100000,-0.100000)"
fill="#000000" stroke="none">
<path d="M783 1933 c-4 -1 -30 -3 -58 -5 l-49 -3 1 -55 c1 -30 3 -67 6 -82 3
-16 1 -31 -6 -35 -12 -8 -124 -52 -142 -56 -5 -1 -32 -15 -59 -30 -27 -15 -50
-27 -53 -27 -16 0 -183 -168 -183 -184 0 -3 -5 -17 -12 -33 -6 -15 -13 -35
-15 -43 -7 -30 -16 -95 -15 -105 1 -5 4 -35 7 -65 2 -30 7 -77 10 -105 3 -27
8 -81 10 -120 2 -38 7 -88 9 -110 3 -22 8 -69 11 -105 3 -36 8 -87 10 -115 3
-27 7 -84 10 -125 10 -125 4 -115 73 -115 34 0 62 3 62 6 0 3 10 5 23 4 25 -3
60 13 53 23 -2 4 -7 42 -10 84 -5 70 -10 127 -21 238 -3 25 -7 79 -10 120 -3
41 -7 95 -10 120 -3 25 -7 72 -10 105 -3 33 -8 92 -11 130 -9 107 -5 195 8
195 5 0 8 7 8 15 0 8 5 15 10 15 6 0 10 5 10 11 0 30 150 139 192 139 10 0 18
4 18 8 0 4 11 9 25 10 20 1 25 -3 27 -23 1 -14 3 -37 4 -52 1 -16 5 -57 8 -93
3 -36 8 -94 10 -130 3 -36 8 -87 11 -115 3 -27 8 -84 11 -125 3 -41 8 -91 10
-110 2 -19 6 -66 9 -105 8 -109 12 -142 19 -153 6 -10 25 -9 138 2 51 5 58 12
52 54 -2 20 -7 64 -9 97 -3 33 -7 78 -9 100 -2 22 -7 76 -10 120 -9 109 -15
180 -22 245 -7 72 -12 138 -19 221 -2 37 -6 73 -7 80 -3 13 57 21 77 10 6 -3
21 -7 35 -8 14 -2 34 -7 45 -12 11 -5 35 -15 53 -21 75 -29 151 -126 157 -204
2 -23 7 -70 10 -106 7 -68 13 -144 19 -220 2 -25 7 -85 12 -135 4 -49 8 -111
8 -137 1 -27 4 -48 7 -48 3 0 6 -12 6 -27 1 -39 13 -184 18 -208 2 -11 4 -23
4 -27 1 -4 11 -5 24 -3 12 2 52 6 89 9 77 5 91 11 84 34 -5 15 -8 43 -21 207
-2 28 -6 79 -10 114 -3 36 -8 92 -10 125 -3 34 -8 84 -11 111 -3 28 -8 79 -9
115 -2 36 -4 65 -5 65 -1 0 -3 19 -5 42 -9 139 -61 236 -174 326 -68 54 -208
102 -331 114 -36 3 -67 7 -69 9 -3 3 -6 23 -8 47 -2 23 -5 53 -8 67 -2 14 -4
30 -4 36 -1 10 -70 15 -98 7z"/>
<path d="M1708 1845 c-2 -1 -28 -6 -58 -9 -52 -6 -75 -20 -63 -39 3 -5 7 -36
9 -70 7 -114 13 -192 18 -222 2 -16 7 -70 11 -120 4 -49 9 -106 11 -125 2 -19
6 -69 9 -110 9 -120 14 -182 20 -225 3 -22 7 -71 9 -110 3 -38 8 -101 12 -140
21 -203 -6 -288 -115 -365 -12 -8 -25 -15 -29 -15 -4 0 -13 -4 -19 -8 -7 -5
-13 -6 -13 -2 0 3 -9 1 -20 -5 -12 -6 -43 -11 -69 -12 l-49 0 2 -51 1 -52 50
1 c28 1 68 5 90 9 22 4 46 7 53 8 6 0 12 3 12 7 0 4 6 7 13 7 19 0 147 66 142
73 -2 4 6 13 20 20 43 23 102 120 124 205 10 38 8 241 -3 330 -3 22 -8 69 -11
105 -7 95 -14 178 -21 240 -3 30 -7 82 -10 115 -2 33 -6 80 -8 105 -3 25 -8
79 -11 120 -4 41 -8 95 -11 120 -2 25 -6 81 -9 124 -3 44 -7 82 -10 84 -5 5
-72 12 -77 7z"/>
</g>
</svg>
